<svg id="Hugo_Cat" data-name="Hugo+Cat" xmlns="http://www.w3.org/2000/svg" viewBox="0 0 474.55 97.55"><defs><style>.cls-1{fill:#fff}</style></defs><title>FB_Logo_Hugo+Cat_Wordmarque_NEG_RGB</title><path class="cls-1" d="M129.33 145.07V72.93c0-.73-.35-1.09-1-1.09h-11.28a1 1 0 0 0-1.05 1.09v28.28H85.2V72.93q0-1.09-1-1.09H72.93a1 1 0 0 0-1.09 1.09v72.14c0 .69.36 1 1.09 1h11.24a.92.92 0 0 0 1-1v-31.54H116v31.54a1 1 0 0 0 1.09 1h11.24a.92.92 0 0 0 1-1m55.19 0V93.9a.91.91 0 0 0-1-1h-10.65q-1.09 0-1.09 1V118q0 8.91-3.6 13.31a11.25 11.25 0 0 1-9.09 4.4q-9.12 0-9.11-11V93.9a1 1 0 0 0-1.09-1h-10.62a.91.91 0 0 0-1 1v35.32q0 8.29 4.92 13.1t13.62 4.82a24.27 24.27 0 0 0 16-5.9v3.83a1 1 0 0 0 1.09 1h10.62a.91.91 0 0 0 1-1m48-26.23q0 6.9-3.55 11.26a11.74 11.74 0 0 1-9.61 4.36 12 12 0 0 1-9.71-4.41 17 17 0 0 1-3.65-11.2 17 17 0 0 1 3.65-11.21 12 12 0 0 1 9.71-4.41 11.73 11.73 0 0 1 9.61 4.36q3.55 4.36 3.55 11.26m5.18 42.49q6.68-6.84 6.68-20.51V93.91a.92.92 0 0 0-1-1h-10.64c-.72 0-1.09.34-1.09 1v3.2a21.56 21.56 0 0 0-14.81-5.31q-10.82 0-17.61 7.55t-6.78 19.51q0 12.08 6.83 19.57t18 7.49a22 22 0 0 0 14.4-5.08v1.87q0 6.58-3.11 10.31t-9.48 3.73q-9.63 0-11-6.78-.15-1.09-1.09-1.09h-10.61a1 1 0 0 0-1.09 1.09 17.85 17.85 0 0 0 7.25 13.31 25.58 25.58 0 0 0 15.85 4.92q12.64 0 19.32-6.83m57.64-41.87q0 7.32-4.11 11.78a15.08 15.08 0 0 1-21.42 0q-4.14-4.46-4.14-11.78t4.14-11.77a15.08 15.08 0 0 1 21.42 0q4.11 4.46 4.11 11.77m5.47 19.83q8.1-7.85 8.1-19.83t-8.1-19.83q-8.11-7.85-20.3-7.85t-20.3 7.85q-8.11 7.85-8.11 19.83t8.11 19.83q8.1 7.85 20.3 7.85t20.3-7.85M380 89.61a.85.85 0 0 0-.37-1.22 14 14 0 0 0-15.22.06c-9.88 6-8.21 17.16-8.17 30.3 0 12-8.12 16.15-13.26 16.22-5.69 0-13.67-3.3-13.67-11.47 0-5.22 4.26-9.79 12.61-10.18h4q1.09-.05 1.09-1.09V102q-.1-1.08-1.09-1.09h-3.12c-2.39 0-9.82-1-9.59-9.7.24-9.19 7.37-9.18 9.16-9.18a20.12 20.12 0 0 1 5.37 1.39 1 1 0 0 0 1.38-.52l3.38-8.63a1 1 0 0 0-.53-1.38 24.18 24.18 0 0 0-9.78-2.28c-10.66 0-21.71 6.7-21.71 20.83.05 9.63 6.15 13.29 9.28 14.33-1.35.17-8.44 1.25-12 11.36a22.37 22.37 0 0 0 2.32 19.49c2.06 2.79 9 10.41 23 10.41 12.24 0 18.67-7.2 20.58-10.28 4-6.39 4-12.16 4-17 0-3.5-1.33-18.07 2.65-21 2.3-1.71 4.08-1 5-.49l.32.2a.82.82 0 0 0 1.22-.37zm63.1 50.56a.88.88 0 0 0 .12-1.19l-5.42-9.62s-.59-1.26-1.51-.22c-3.84 3.22-10.16 5-16.62 5-4.79 0-11.37-2.6-14.87-6.29-4.06-4.69-6.12-10.86-6.21-19-.08-7.38 2.11-14.46 6.19-19.07 3-3.51 9.12-6.23 14.71-6.23 6.66 0 13.16 1.91 17.11 5.41a.92.92 0 0 0 1.55-.31l4.6-9.66a1.31 1.31 0 0 0-.33-1.66c-6.25-4.56-14.23-6.68-23.09-6.68a35.23 35.23 0 0 0-12.48 2.28 34.79 34.79 0 0 0-11 6.74 32.93 32.93 0 0 0-8 12 48 48 0 0 0-3 17.18 45.63 45.63 0 0 0 3 17.16 34.72 34.72 0 0 0 8 12 37.08 37.08 0 0 0 11 6.74 35.12 35.12 0 0 0 12.54 2.25c8.72 0 17.36-2.28 23.6-6.7l.14-.1m42.29-20.76a18.32 18.32 0 0 1-3.6 11.62 12.63 12.63 0 0 1-19.52 0 18.32 18.32 0 0 1-3.6-11.62 18.32 18.32 0 0 1 3.6-11.62 12.63 12.63 0 0 1 19.52 0 18.32 18.32 0 0 1 3.6 11.62M497.54 145V93.86q0-1.09-1-1.09h-10.7a1 1 0 0 0-1 1.09V97a23.89 23.89 0 0 0-15.28-5.31q-10.83 0-17.51 7.46t-6.68 20.22q0 12.76 6.68 20.22t17.51 7.46a23.67 23.67 0 0 0 15.28-5.39V145a.92.92 0 0 0 1 1h10.66a.92.92 0 0 0 1-1m48.86-1.34V135q0-.93-.72-.93a2.34 2.34 0 0 0-.73.1 27.36 27.36 0 0 1-9.37 1.55q-3.88 0-5.59-2.12t-1.68-6.6v-22.69h16c.72 0 1.09-.34 1.09-1v-9.4a1 1 0 0 0-1.09-1h-16V77.59a.92.92 0 0 0-1-1h-10.65q-1.09 0-1.09 1v15.28h-9.11a.92.92 0 0 0-1 1v9.37a.92.92 0 0 0 1 1h9.11v25q0 8.6 4.92 13.21t12.89 4.61q7.77.05 12.22-1.65.83-.31.83-1.82" transform="translate(-71.84 -70.62)"/></svg>